<svg xmlns="http://www.w3.org/2000/svg" width="85.482" height="88" viewBox="0 0 85.482 88">
  <g id="Layer_1" data-name="Layer 1" transform="translate(0 0)">
    <circle id="Ellipse_1" data-name="Ellipse 1" cx="30.07" cy="30.07" r="30.07" transform="translate(13.212 14.783)"/>
    <g id="Group_2" data-name="Group 2">
      <path id="Path_41" data-name="Path 41" d="M62.755,69.193a.529.529,0,0,1,.83.607A21.729,21.729,0,0,1,21.813,61.41s-.086-13.467,15.517-20.6,18.646-14.25,17.205-19.261c-1.363-4.743-13.259-10.778-23.551-3.6a.365.365,0,0,1-.5-.517A19.294,19.294,0,0,1,46,9.634c10.394,0,20.655,8.4,18.319,18.591-.108.472-.213.946-.307,1.424-.462,2.379-3.161,11.36-18.256,18.846-15.9,7.886-15.018,17.224-13.2,21.993.954,2.5,10.353,15.294,30.2-1.3Z" fill="none" stroke="#fff" stroke-miterlimit="10" stroke-width="2.248"/>
      <path id="Path_42" data-name="Path 42" d="M30.985,17.951s10.435,12.766,0,26.69" fill="none" stroke="#fff" stroke-miterlimit="10" stroke-width="2.248"/>
      <path id="Path_43" data-name="Path 43" d="M62.755,69.193S45.376,64.666,43.4,49.739" fill="none" stroke="#fff" stroke-miterlimit="10" stroke-width="2.248"/>
      <path id="Path_44" data-name="Path 44" d="M41.369,52.028s2.375,18.043,15.758,20.493" fill="none" stroke="#fff" stroke-miterlimit="10" stroke-width="0.409"/>
      <path id="Path_45" data-name="Path 45" d="M39.934,51.636S31.721,72.8,49.529,76.823" fill="none" stroke="#fff" stroke-miterlimit="10" stroke-width="0.409"/>
      <path id="Path_46" data-name="Path 46" d="M35.117,15.766s14.04,5.816.807,25.725" fill="none" stroke="#fff" stroke-miterlimit="10" stroke-width="0.409"/>
      <path id="Path_47" data-name="Path 47" d="M45.754,15.188s9.738,8.548-5.35,24.135" fill="none" stroke="#fff" stroke-miterlimit="10" stroke-width="0.409"/>
    </g>
    <g id="Group_3" data-name="Group 3">
      <path id="Path_48" data-name="Path 48" d="M79.28,50.455c.016-.121.031-.239.045-.349s.016-.213.022-.3c.012-.176.022-.29.022-.29a.781.781,0,0,0-.119.006C79.268,49.862,79.284,50.169,79.28,50.455Z" fill="#c49b29"/>
      <path id="Path_49" data-name="Path 49" d="M80.59,51.566c.012-.1.027-.2.039-.307a.311.311,0,0,1-.1.047C80.547,51.389,80.571,51.47,80.59,51.566Z" fill="#c49b29"/>
      <path id="Path_50" data-name="Path 50" d="M79.247,49.521c-.443.037-.907.372-1.31-.127.018-.249.047-.623.076-1s.025-.752.035-1.005c-.227-.507-.478-.012-.719-.02.012-.493.027-.983-.094-.983-.078-.092-.151-.125-.217-.1a.408.408,0,0,0-.176.2,3.27,3.27,0,0,0-.237,1.038,7.467,7.467,0,0,1,.746,2.011c.106.37.166.734.235,1.067s.135.638.206.879a1.522,1.522,0,0,0,.221.515c.082.09.18.092.3-.029a2.253,2.253,0,0,0,.411-.758c.078-.2.161-.435.253-.715.045-.139.094-.29.141-.452s.08-.337.125-.523Z" fill="#c49b29"/>
      <path id="Path_51" data-name="Path 51" d="M79.609,53.816c.161-.922.347-1.839.443-2.773-.237-.325-.46-.74-.768-.495,0,.358.016.685.035.985.01.151.022.3.033.435s.014.272.025.4a8.635,8.635,0,0,0,.235,1.445Z" fill="#c49b29"/>
      <path id="Path_52" data-name="Path 52" d="M80.081,38.677c.072-.014.129.025.106.529-.037-.186-.059-.358-.106-.529-.069.008-.159.057-.257-.17a29.507,29.507,0,0,1,1.1,6.129c.135.274.27.54.4.785A34.674,34.674,0,0,0,80.175,37.6a23.807,23.807,0,0,0-2.824-6.542c.08.174.157.343.233.511s.153.329.219.495c.137.327.272.644.4.952.067.153.133.307.2.458s.116.307.176.456c.116.3.231.6.347.9.057.149.119.3.172.448s.1.3.151.456q.15.457.3.928c.108.313.186.64.274.975s.17.681.257,1.04Z" fill="#c49b29"/>
      <path id="Path_53" data-name="Path 53" d="M82.059,45.828c.006.19.012.368.018.556C82.172,45.883,82.133,45.83,82.059,45.828Z" fill="#c49b29"/>
      <path id="Path_54" data-name="Path 54" d="M13.8,25.6a23.624,23.624,0,0,0-3.251,7.956,33.853,33.853,0,0,1,1.608-4.03,38,38,0,0,1,2.087-3.721,46.726,46.726,0,0,1,4.674-6.094A38.909,38.909,0,0,0,13.8,25.6Z" fill="#c49b29"/>
      <path id="Path_55" data-name="Path 55" d="M9.713,46.739c0-.112.006-.227.01-.337l.025-.335c.014-.221.029-.439.041-.658s.018-.431.029-.644.033-.421.047-.629c.033-.415.051-.824.069-1.224q.058-.6.094-1.181c.014-.194.016-.388.037-.578l.055-.57c.037-.378.055-.754.092-1.124s.084-.736.121-1.1c.02-.182.031-.368.055-.548s.051-.362.078-.54a34.1,34.1,0,0,0-.926,8.653c.025.135.051.274.076.413s.065.274.1.4Z" fill="#c49b29"/>
      <path id="Path_56" data-name="Path 56" d="M9.162,42.644q.083-.628.141-1.238c.014-.2.045-.4.074-.6s.051-.4.076-.593c.076-.789.213-1.543.3-2.3.047-.376.123-.74.176-1.11s.1-.738.18-1.1c.143-.721.26-1.447.441-2.154-.274.768-.456,1.561-.666,2.33-.09.39-.163.781-.243,1.167l-.116.576c-.033.192-.055.386-.084.578q-.08.576-.155,1.14c-.033.38-.057.756-.084,1.126l-.037.552c-.012.182,0,.366-.008.548,0,.362,0,.717,0,1.069Z" fill="#c49b29"/>
      <path id="Path_57" data-name="Path 57" d="M64.633,6.376a33.76,33.76,0,0,1,3.3,1.5c.421.223.793.411,1.1.595s.566.349.781.49A17.925,17.925,0,0,1,71.7,9.57c-.139-.108-.286-.223-.423-.331A48.356,48.356,0,0,0,62.943,4.88c-.619-.2-1.224-.386-1.8-.552-.582-.149-1.14-.266-1.649-.362l1.316.544c.435.188.862.4,1.292.595.866.384,1.7.842,2.532,1.269Z" fill="#c49b29"/>
      <path id="Path_58" data-name="Path 58" d="M69.816,8.959c-1-.268-1.275-.253-1.2-.135a3.272,3.272,0,0,0,.961.556c.907.4,1.915.683.239-.421Z" fill="#c49b29"/>
      <path id="Path_59" data-name="Path 59" d="M50.806,8.773c-.123-.022-.249-.043-.374-.065-.364-.037-.74-.076-1.1-.114l1.478.18Z" fill="#c49b29"/>
      <path id="Path_60" data-name="Path 60" d="M19.535,12.055A51.51,51.51,0,0,1,25.578,8.3a35.506,35.506,0,0,0-10.913,8.2,8.889,8.889,0,0,1,.689-.572c.233-.186.486-.349.709-.548a13.847,13.847,0,0,1,1.451-1.637c.3-.288.609-.593.95-.875s.705-.552,1.073-.813Z" fill="#c49b29"/>
      <path id="Path_61" data-name="Path 61" d="M67.069,14.892a37.325,37.325,0,0,0-8.1-4.169l-.523-.2-.533-.172q-.53-.172-1.061-.339c-.349-.119-.713-.2-1.069-.3s-.709-.192-1.065-.278l-1.073-.225c-.358-.072-.709-.157-1.069-.2L51.5,8.845c-.178-.027-.356-.057-.533-.08l-.535-.055a36.022,36.022,0,0,0-16.776.86A32.753,32.753,0,0,0,20.33,17.326a52.491,52.491,0,0,0-4.9,5.493c-.1.133-.206.268-.311.4l-.3.419c-.2.28-.4.56-.6.844s-.38.584-.572.879-.388.587-.564.893-.354.615-.531.924l-.266.464-.243.478c-.163.317-.325.636-.488.954s-.3.652-.443.979A32.707,32.707,0,0,0,9.64,34.042q-.132.506-.264,1.01c-.082.335-.182.662-.239,1s-.129.666-.192,1c-.031.166-.063.327-.09.493s-.043.329-.063.493a21.5,21.5,0,0,0,.123,7.059c.027-.427.084-.842.129-1.249.02-.2.039-.4.059-.6s.031-.4.061-.593c0,.292.033.582.051.866s.049.562.074.836.069.542.112.805.094.519.139.772A34.268,34.268,0,0,0,29.162,76.308c.435.194.852.36,1.257.507.415.127.817.235,1.22.347s.811.192,1.226.3c.208.053.417.11.631.172s.437.108.664.174c.916.268,1.843.462,2.765.646l1.39.231,1.394.157c.01-.027-.01-.055-.059-.088a33.1,33.1,0,0,0,5.781,0,29.656,29.656,0,0,0,5.646-1.042,30.643,30.643,0,0,0,10.288-5.176,35,35,0,0,0,7.8-7.692,3.53,3.53,0,0,1,.535-.615,2.488,2.488,0,0,1,.423-.331,2.876,2.876,0,0,0,.826-.646,28.639,28.639,0,0,0,3.067-4.328,22.4,22.4,0,0,0,2.193-5.295l.352.078c.031-.166.059-.329.088-.486s.047-.311.074-.458c.053-.294.112-.564.176-.805a7.648,7.648,0,0,1,.468,2.123c.037.386.072.766.1,1.112s.035.658.069.909c.067.5.188.77.454.558a6.539,6.539,0,0,0,1.259-2.352h0c-.039.341-.069.65-.1.946-.008.037-.016.067-.022.1.006,0,.01,0,.014,0-.025.368-.08.693-.1,1S79,56.935,79,57.2s-.012.517-.012.76.014.482.035.725l.229-.676c.078-.225.153-.452.215-.683.131-.46.262-.918.392-1.379.112.217.243.374.433.321.008.09.018.172.022.27-.119.415-.217.762-.217.762a1.349,1.349,0,0,0,.18.384c-.061.65-.2,1.377-.335,2.107-.172.715-.339,1.435-.493,2.048-.335,1.216-.513,2.064-.123,1.809a5.177,5.177,0,0,0,.819-1.584c.143-.392.276-.844.425-1.32.072-.239.153-.484.223-.74s.133-.517.2-.783a3.472,3.472,0,0,0,.253-.378c-.4,1.381-.208,1.457.035,1.392.123-.033.255-.1.331-.055s.1.21-.041.631a39.548,39.548,0,0,1-2.951,6.429,43.716,43.716,0,0,1-4.028,5.693l-.55.644c-.184.213-.362.431-.556.634-.382.411-.764.817-1.142,1.224L71.154,76.6c-.194.2-.4.38-.609.564l-.619.554A45.94,45.94,0,0,1,64.6,81.746a43.992,43.992,0,0,1-6.125,3.27l-.58.251c-.192.084-.386.168-.582.237l-1.625.6c-.546.176-1.093.341-1.637.507-.137.041-.272.086-.409.121l-.413.1-.826.2c-.276.065-.548.139-.824.194l-.832.155c-1.1.225-2.221.347-3.341.472l-1.688.11c-.282.022-.566.02-.848.022s-.568,0-.852.006c.288-.09.591-.174.9-.255a56.432,56.432,0,0,1-10.88-.928A40.2,40.2,0,0,1,21.219,82.3a39.416,39.416,0,0,1-10.937-9.057A44.591,44.591,0,0,1,.014,44.808,50.235,50.235,0,0,0,2.076,57.64c.133.474.266.95.4,1.422.155.466.311.932.466,1.394.08.231.153.464.239.691s.18.452.268.676c.182.448.354.9.548,1.332-.186-.458-.352-.922-.531-1.377L3.2,61.094c-.08-.231-.157-.462-.237-.691-.157-.46-.315-.92-.472-1.375q-.208-.7-.417-1.386c-.061-.229-.131-.456-.184-.689l-.155-.695c-.1-.464-.213-.928-.3-1.394s-.161-.936-.243-1.4c-.039-.233-.086-.466-.114-.7l-.088-.7c-.057-.468-.123-.934-.174-1.4s-.078-.932-.116-1.394c-.02-.231-.039-.462-.059-.693S.615,48.111.6,47.88q-.034-.69-.063-1.367c-.106-3.627.112-7.046.245-10.081a4.5,4.5,0,0,1,.288-.593A2.85,2.85,0,0,0,1.3,35.25a48.835,48.835,0,0,1,2.129-6.133c.206-.486.413-.969.615-1.445s.425-.938.634-1.4c.1-.231.2-.462.3-.691l.317-.67c.208-.446.4-.891.595-1.328-.1-.061.924-1.663.38-1.261q.184-.307.374-.619l.409-.611c.278-.409.556-.83.85-1.243.613-.809,1.222-1.649,1.9-2.436.648-.811,1.359-1.565,2.035-2.33q.53-.552,1.046-1.091c.172-.18.343-.36.513-.535l.521-.509c.3-.288.6-.582.889-.883l.9-.883c.3-.294.584-.609.891-.9l.911-.9A45.78,45.78,0,0,1,58.966,2.08c.468.135.932.313,1.406.486s.954.345,1.431.546c.946.411,1.919.815,2.853,1.306l.705.356c.235.116.47.239.695.372l1.361.777c.227.127.446.264.662.4l.648.413c.425.278.856.535,1.255.83A48.872,48.872,0,0,0,53.463,1.441,38.218,38.218,0,0,0,45.17.345a27.241,27.241,0,0,0-7.373.822c-.513.125-1.022.239-1.529.37l-1.508.427a46.98,46.98,0,0,1,18.705-.521,49.351,49.351,0,0,1,9.679,3.5c-.067-.02-.127-.041-.2-.061a46.264,46.264,0,0,0-7.7-2.381A38.866,38.866,0,0,0,47.99,1.126a33.069,33.069,0,0,0-3.46-.1l-.832.029-.411.018-.407.039q-.809.08-1.58.182c-.257.031-.511.076-.762.127s-.5.1-.738.151c-1.018.172-2.025.425-3.025.654.944-.155,1.886-.345,2.839-.439.474-.055.95-.116,1.426-.168l1.431-.1.715-.049c.239-.014.478-.012.715-.02l1.433-.027c.478-.01.954.02,1.433.029l.717.022c.239.006.478.014.715.037.591.047,1.183.094,1.774.143s1.177.145,1.768.219,1.175.176,1.76.282,1.171.2,1.747.343A44.078,44.078,0,0,1,59.5,3.969c-.157-.031-.325-.063-.47-.086a5.9,5.9,0,0,0-1.322-.147c-.26-.006-.525,0-.783.01-.129.006-.255.016-.378.029s-.243.035-.356.057c-.907.17-1.408.488-.558.918a48.453,48.453,0,0,1,7.183,2.732,45.77,45.77,0,0,1,6.517,3.785c.932.678,1.811,1.308,2.552,1.935.372.311.736.591,1.052.875l.875.789c.54.474.934.889,1.208,1.167a3.14,3.14,0,0,1,.407.45c.01.1-.168,0-.484-.239s-.762-.638-1.341-1.083l-.922-.744c-.325-.27-.693-.527-1.059-.809-.728-.572-1.553-1.124-2.362-1.686-.409-.276-.834-.531-1.243-.791-.2-.129-.409-.255-.609-.382S67,10.514,66.8,10.4l-1.149-.648c-.366-.2-.721-.368-1.04-.529s-.611-.3-.866-.429-.482-.21-.66-.286c-.356-.149-.531-.215-.47-.166.39.235.789.452,1.173.7s.764.488,1.146.732c-.4-.17-.791-.337-1.173-.5-.1-.041-.192-.08-.286-.119l-.288-.1c-.19-.065-.378-.131-.562-.2-.21-.09-.427-.188-.648-.292s-.443-.213-.678-.309c-.462-.2-.932-.407-1.386-.6s-.905-.345-1.31-.484a6.1,6.1,0,0,0-1.079-.282c-2.111-.382-4.306-.852-6.6-1.2l-.862-.121L49.631,5.5c-.145-.018-.29-.029-.437-.041-.584-.051-1.171-.106-1.76-.145-.591-.018-1.183-.031-1.776-.033s-1.187.051-1.778.092l-.562.055c-.188.029-.38.055-.572.084l-1.173.18c-.4.053-.8.149-1.2.231l-1.226.26a39.731,39.731,0,0,0-4.931,1.549c.027.116-.384.241-.723.352s-.6.231-.3.268c-.768.225-1.576.425-2.342.717-.386.137-.768.272-1.138.415s-.719.315-1.059.472a12.014,12.014,0,0,0-1.772.991,4.069,4.069,0,0,0-1.085.979l-.194.121a5.658,5.658,0,0,0-.73.482,22.506,22.506,0,0,0-5.608,4.1,38.391,38.391,0,0,0-4.183,5.015c-.247.309-.5.619-.748.93l-.719.967-.364.484-.345.5c-.233.335-.468.67-.705,1.01.307-.446.728-.973,1.126-1.514a16.756,16.756,0,0,0,1.136-1.51c.208-.294.415-.582.619-.869a48.359,48.359,0,0,1,4.11-4.461,40.1,40.1,0,0,1,4.649-3.752c.245-.223.644-.582,1.032-.9.257-.131.521-.253.785-.376a1.936,1.936,0,0,1,.139-.227,31.5,31.5,0,0,1,5.36-2.665A53.589,53.589,0,0,1,36.5,7.512c.764-.206,1.553-.327,2.346-.466.4-.076.8-.11,1.2-.155l1.212-.125,1.222-.055c.409-.014.817-.041,1.228-.025.819.018,1.645.016,2.465.1.411.033.822.063,1.232.1l1.226.166.613.084c.2.029.4.074.607.11l1.212.233c.4.076.8.19,1.2.282l.6.147c.2.047.4.1.591.159.781.241,1.567.446,2.324.73-.772-.227-1.563-.37-2.34-.544l-.292-.061-.294-.047-.589-.094c-.392-.059-.779-.131-1.169-.182a38.215,38.215,0,0,0-4.653-.3l.717.016c.239,0,.474.031.711.045q.711.052,1.412.1c.928.123,1.858.2,2.759.378A39.708,39.708,0,0,1,57.313,9.36c.511.208,1.018.4,1.52.613l1.561.705,1.527.779-1.388-.791c-.47-.243-.946-.474-1.42-.709a41.176,41.176,0,0,1,5.81,2.608A38.438,38.438,0,0,1,72,17.79a38.887,38.887,0,0,1,5.761,6.836,37.229,37.229,0,0,1,4.04,8.046,37.8,37.8,0,0,1,2,8.753q-.261-.322-.531-.734a36.638,36.638,0,0,0-2.164-8.1,25.582,25.582,0,0,0-3.762-6.564l.591,1.007c.1.161.194.319.284.478l.26.476c.341.625.687,1.214.979,1.825.153.3.3.6.458.911s.28.625.423.946.278.652.423.989c.123.347.249.7.382,1.071-.065.018-.151.08-.276-.153a29.688,29.688,0,0,1,1.9,6.333c-.441-.668-.858-1.412-1.357-2.119a8.706,8.706,0,0,1-.347-.885c-.027-.082-.055-.163-.084-.249s-.063-.168-.1-.253c-.061-.172-.125-.352-.19-.533-.129-.364-.249-.748-.392-1.132s-.307-.772-.47-1.159c-.149-.427-.329-.842-.5-1.255l-.262-.619c-.086-.206-.172-.413-.272-.613-.192-.4-.382-.805-.574-1.206-.092-.2-.2-.4-.3-.593l-.313-.584c-.4-.789-.873-1.529-1.312-2.285-.241-.366-.48-.732-.721-1.1-.121-.182-.237-.366-.364-.546l-.386-.527a35.187,35.187,0,0,0-7.283-7.49l-.922-.734c-.153-.121-.3-.247-.462-.366l-.478-.345-.954-.689-.985-.642-.493-.321c-.163-.108-.337-.2-.5-.3l-1.016-.593c-.339-.2-.693-.366-1.038-.55l-.521-.27-.26-.135-.268-.123a37.417,37.417,0,0,0-8.828-2.926,39.783,39.783,0,0,1,8.626,2.25,41.134,41.134,0,0,1,7.637,3.867Zm7.68,49.656c-.112.247-.225.5-.339.75s-.247.5-.372.75c.069-.059.137-.114.206-.166a3.226,3.226,0,0,0,.335-.672,4.212,4.212,0,0,0,.17-.662Zm-7.862,9.3a23.8,23.8,0,0,0,4.271-4.3A34.435,34.435,0,0,0,74.751,63.8a.16.16,0,0,0-.059-.08A55.008,55.008,0,0,1,71.3,68.894a36.622,36.622,0,0,1-4.41,4.952ZM53.729,78.46l.088.012a.548.548,0,0,1-.025-.049l-.063.039ZM6.055,51.241c.572,2.107,1.216,4.433,2.117,6.8a36.27,36.27,0,0,0,3.5,7,43.018,43.018,0,0,0,3.384,4.042,23.24,23.24,0,0,0,2.377,2.328c.186.157.36.323.55.47l.562.446.564.458c.188.157.4.3.6.46-.166-.2-.343-.39-.5-.6l-.476-.619a14.833,14.833,0,0,0,1.847,1.606c.3.229.613.419.909.617l.448.29.223.143.229.131c.615.345,1.2.719,1.856,1.079.323.184.644.394.987.6s.7.423,1.071.672c.031-.053.182-.065.382-.043a1.957,1.957,0,0,1,.678.194q.429.193.848.4c.286.125.57.249.852.378s.556.266.838.38l.836.341a16.134,16.134,0,0,0,1.629.582,9.526,9.526,0,0,0,1.547.364,26.12,26.12,0,0,0,6.9.834,2.344,2.344,0,0,0,.46-.022,4.841,4.841,0,0,0,.6-.11,11.952,11.952,0,0,1,1.418-.249c.6-.043,1.191-.074,1.786-.108.593-.067,1.183-.121,1.772-.19a1.072,1.072,0,0,1-.153-.08c-.48.033-.965.072-1.451.123-.241.033-.486.035-.732.057s-.488.041-.734.067c-.182.018-.368.045-.554.057l-.566.029c-.382.018-.768.039-1.159.059-.39,0-.787,0-1.183-.006-.2,0-.4,0-.6-.008l-.6-.037a28.671,28.671,0,0,1-4.637-.625c-.45-.11-.9-.223-1.345-.331l-1.32-.388-.329-.1c-.108-.033-.217-.074-.323-.11l-.646-.223-.646-.221-.631-.251-.631-.249-.317-.125-.309-.139c-.413-.184-.824-.37-1.234-.554l-1.2-.607-.3-.151-.292-.166-.587-.329-.587-.329-.568-.356-.57-.354-.284-.178-.276-.19c-.368-.253-.738-.507-1.1-.76l-1.067-.809a38.285,38.285,0,0,1-3.977-3.6c-.266-.278-.527-.562-.8-.838l-.409-.415c-.135-.141-.26-.288-.392-.431l-.781-.871c-.247-.3-.484-.609-.719-.92a29.8,29.8,0,0,1-3.691-6.384c-.987-2.228-1.682-4.363-2.391-5.861-.106-.253-.206-.646-.323-1.036a4.786,4.786,0,0,0-.368-1.038Zm-5.491-6.2a54.128,54.128,0,0,0,1.381,9.875,54.476,54.476,0,0,0,3.1,9.11A31.244,31.244,0,0,0,7.494,68.32,33.145,33.145,0,0,0,11.268,72.9c.341.325.672.638,1,.93.161.145.315.29.474.423l.472.376c.307.239.595.458.862.648a7.311,7.311,0,0,0,.758.47c.922.5,1.414.542,1.243-.121a7.1,7.1,0,0,1-1.294-.638,18.991,18.991,0,0,1-1.567-1.167c-.278-.237-.556-.5-.848-.777s-.6-.56-.887-.885-.593-.652-.9-1c-.155-.17-.3-.354-.448-.54s-.294-.376-.443-.566-.3-.386-.452-.582-.286-.409-.433-.615c-.284-.419-.584-.838-.862-1.281s-.544-.9-.819-1.361-.511-.946-.768-1.426a40.139,40.139,0,0,1-2.489-6.047A48.9,48.9,0,0,1,2.44,52.831c-.082-.46-.137-.909-.206-1.343s-.141-.852-.178-1.257-.094-.793-.137-1.163c-.025-.184-.047-.366-.069-.54s-.033-.347-.047-.513c-.061-.662-.141-1.245-.213-1.729a6.089,6.089,0,0,0-.225-1.142c-.184-.544-.443-.634-.8-.11ZM28.412,3.958a72.459,72.459,0,0,0-7.463,3.83A44.323,44.323,0,0,1,28.412,3.958ZM10.672,23.117c.229-.413.458-.83.721-1.228s.515-.807.783-1.21c.566-.779,1.13-1.576,1.77-2.317.611-.768,1.3-1.473,1.976-2.2.356-.345.713-.689,1.069-1.034l.27-.257.28-.247.564-.49.566-.49c.188-.163.39-.311.584-.466.394-.3.783-.619,1.183-.918l1.22-.862.307-.215.315-.2.629-.4.627-.4c.21-.133.429-.249.642-.374.429-.245.854-.5,1.287-.736.877-.45,1.739-.92,2.63-1.314a33.016,33.016,0,0,1,8.845-2.52c3.045-.462,6.029-.621,8.771-.887l.02-.36c-.2.02-.409.055-.613.092-.533-.033-1.042-.069-1.535-.11-.245-.025-.486-.035-.725-.043s-.472-.022-.705-.033l-.689-.035c-.229-.014-.454-.022-.681-.018-.452,0-.9,0-1.353.014l.313-.055-.544.061a18.805,18.805,0,0,0-3.867.566c-.644.159-1.285.382-1.931.582l-.7.182c-.231.067-.46.141-.689.213l-1.375.433-1.355.5c-.225.086-.452.163-.674.255l-.662.284a37.738,37.738,0,0,0-5.087,2.612l-1.187.758c-.394.251-.764.537-1.142.805-.762.527-1.461,1.126-2.164,1.7a31.829,31.829,0,0,0-3.7,3.748l-.511.584c-.168.194-.319.4-.476.6-.309.4-.619.791-.9,1.193s-.55.811-.822,1.214l-.2.3-.188.311-.372.619c-.511.811-.94,1.674-1.408,2.52-.425.875-.881,1.743-1.29,2.675.143-.249.313-.527.49-.819s.394-.582.595-.883.394-.6.582-.891.37-.556.513-.809Z" fill="#c49b29"/>
      <path id="Path_62" data-name="Path 62" d="M58.061,9.484a37.652,37.652,0,0,1,6.862,3.08c.877.45,1.7.975,2.552,1.478.817.544,1.653,1.071,2.442,1.666a33.874,33.874,0,0,1,5.328,5.044,37.72,37.72,0,0,1,4.382,6.38,42.809,42.809,0,0,1,4.78,14.894.845.845,0,0,0,.558.182.752.752,0,0,0,.517-.327,36.053,36.053,0,0,0-1.641-8.434A39.6,39.6,0,0,0,80.332,25.6,46.4,46.4,0,0,0,69.1,12.777l-.235-.135A81.165,81.165,0,0,0,60.92,8.53a32.918,32.918,0,0,0-9.366-2.581,52.051,52.051,0,0,0-8.853.008A35.81,35.81,0,0,0,34.21,7.731c1-.253,2.017-.417,3.022-.607,1.014-.131,2.019-.294,3.033-.358,1.01-.11,2.021-.116,3.031-.159,1.01.02,2.017,0,3.02.094,1.007.045,2,.188,3,.307.991.176,1.988.325,2.967.576.987.21,1.954.517,2.922.809.478.17.954.341,1.435.511.241.082.476.18.709.28l.705.3Z" fill="#c49b29"/>
      <path id="Path_63" data-name="Path 63" d="M10.463,37.271a33.167,33.167,0,0,1,1.813-5.522l.092-.239.1-.233c.069-.155.139-.309.206-.462.139-.307.268-.617.413-.918l.446-.889c.074-.149.147-.3.221-.443s.159-.286.237-.431c.321-.57.623-1.146.975-1.688l.5-.824c.18-.266.362-.529.54-.793A37.413,37.413,0,0,1,20.916,19a37.445,37.445,0,0,0-7.4,8.487,20.63,20.63,0,0,0-2.089,4.9,31.611,31.611,0,0,0-.973,4.886Z" fill="#c49b29"/>
      <path id="Path_64" data-name="Path 64" d="M24.084,16.267c-.278.221-.564.427-.834.654s-.533.454-.8.681l-.4.335-.38.356L20.92,19a37.962,37.962,0,0,1,6.909-4.617,36.834,36.834,0,0,1,7.782-2.914,36.615,36.615,0,0,1,13.762-1.036,37.987,37.987,0,0,1,13.451,4.185c.472.266.946.529,1.412.8L65.6,16.3a36.813,36.813,0,0,0-11.853-5.957,35.532,35.532,0,0,0-6.46-1.263A37.177,37.177,0,0,0,40.8,9.02l-.8.074c-.266.027-.531.043-.795.088l-1.576.233c-.519.1-1.034.21-1.551.315-.257.047-.513.114-.764.182l-.758.2a34.281,34.281,0,0,0-5.763,2.146,32.919,32.919,0,0,0-5.068,3.067c-.194.145-.386.29-.578.435s-.384.286-.564.446l-1.089.92c-.691.646-1.377,1.277-1.995,1.962-.18.2-.394.411-.582.625a37.17,37.17,0,0,1,18.245-9.382,34.589,34.589,0,0,0-13.077,5.939Z" fill="#c49b29"/>
      <path id="Path_65" data-name="Path 65" d="M55.766,8.8l.779.272c.129.045.26.088.386.137l.38.153.907.292.452.145c.149.049.294.108.443.163-.343-.178-.7-.321-1.052-.472l-1.142-.374c-.386-.1-.77-.21-1.153-.315Z" fill="#c49b29"/>
      <path id="Path_66" data-name="Path 66" d="M39.427,3.854c-.076,0-.151,0-.231.006a44.809,44.809,0,0,0-5.8,1.151A49.728,49.728,0,0,0,25.576,8.3a46.71,46.71,0,0,1,7.161-2.83c2.371-.715,4.657-1.206,6.691-1.616Z" fill="#c49b29"/>
      <path id="Path_67" data-name="Path 67" d="M21.826,6.161c-.3.143-.717.4-1.146.642s-.856.488-1.136.662c-.3.276-.591.55-.889.826.521-.321,1.036-.664,1.582-.954l.791-.593c.266-.2.525-.4.8-.58Z" fill="#c49b29"/>
      <path id="Path_68" data-name="Path 68" d="M.789,36.429A44.291,44.291,0,0,1,6.752,21.221a44.748,44.748,0,0,1,4.854-6.413,45.378,45.378,0,0,1,5.9-5.422c.188-.184.372-.376.564-.558s.388-.36.58-.54c-.775.466-1.5,1-2.238,1.52-.372.253-.715.546-1.071.822s-.707.554-1.048.844l-1.005.889-.5.448-.476.468-.942.94c-.309.317-.6.652-.893.977A36.156,36.156,0,0,0,7.3,19.312c-.237.354-.454.723-.676,1.081s-.443.717-.642,1.087-.39.74-.582,1.106c-.094.184-.188.368-.282.55s-.172.374-.257.56C4.3,24.865,3.719,26.726,3.2,27.883A37.466,37.466,0,0,0,.648,36.321a41.437,41.437,0,0,0-.634,8.487,45.205,45.205,0,0,1,.732-8.15C.76,36.581.775,36.507.789,36.429Z" fill="#c49b29"/>
    </g>
  </g>
</svg>
